<svg xmlns="http://www.w3.org/2000/svg" viewBox="0 0 448.01 506.31"><defs><style>.cls-1{fill:#4f5052;}.cls-2{fill:#4d4e50;}.cls-3{fill:#4e4f51;}.cls-4{fill:#f26d22;}.cls-5{fill:#4c4d4f;}.cls-6{fill:#515254;}.cls-7{fill:#f26e23;}.cls-8{fill:#575656;}.cls-9{fill:#595858;}.cls-10{fill:#555454;}.cls-11{fill:#505153;}</style></defs><title>SimplyVetsLogo</title><g id="Layer_2" data-name="Layer 2"><g id="Layer_1-2" data-name="Layer 1"><path class="cls-1" d="M83.27,107.84c-8.71-12.62-8.38-26.44-5.63-40.33,4.09-20.7,13-39.19,27.63-54.58C112.6,5.23,121-.9,132.47.11a38,38,0,0,1,8.78,2.14c3.55,1.2,6.54,3.5,10.83,3,3.35-.44,6.07,3.13,6.38,6.7a7.68,7.68,0,0,1-5.3,7.8c-3.52,1-7.59-.43-8.86-3.75-1-2.67-1.89-5-4.89-6.08-4.12-1.54-8.17-2.77-12.62-1.76-6.19,1.42-11.1,5.07-15.21,9.56C95.41,35.31,86.14,56.09,84.48,80A38.58,38.58,0,0,0,89.58,103c5.35,8.92,13.7,13.13,23.7,14.34,16.27,2,31.22-2.83,45.67-9.55,10.44-4.85,20.07-11,27.89-19.66,8.38-9.28,9.76-17.87,4.26-27.41A5.58,5.58,0,0,0,188,58.41c-4.24-1.2-6.8-4.85-5.95-8.93a7.57,7.57,0,0,1,8.63-5.93c4.12.59,6.59,4.17,6.24,8.69a7.56,7.56,0,0,0,.76,3.92c6.94,13.11,6.17,24-3.59,35.29-15.93,18.38-36.37,29-60.25,32.8-16,2.57-31.22.29-44.74-9.37-59.29,45.46-97.5,132.37-73.33,223.2A215.61,215.61,0,0,0,228.39,497.87c94.2-1.8,178.76-65.84,203.77-159.8,25.16-94.5-16.07-189.07-91.9-236.89-10.38,9.18-21.43,6.82-28,1.15a20.21,20.21,0,0,1,20.43-34.16C342.8,72,347.24,81.14,345,93.53c57.69,39.22,93,92.77,101.26,162.33,7.72,64.65-10.09,122.44-52.15,172.26-81.05,96-228.71,104.77-321.29,19.78C-28,355.34-23.76,193.46,83.27,107.84Zm242.45-5.29A15.51,15.51,0,1,0,310.29,86.9,15.41,15.41,0,0,0,325.72,102.55Z"/><path class="cls-2" d="M181.26,327.6c0-12.53,0-24.68,0-36.83,0-4.2-.27-8.44-4.72-10.49-4.65-2.14-9-.88-12.6,2.45a7.22,7.22,0,0,0-2.22,4.64c-.18,12-.1,24.09-.1,36.13v4H147.52V269.35c9.61-1.49,11.33-.73,13.13,6.21,4.53-4.57,9.58-7.59,16.08-7.4,7,.21,11.07,4.25,13.88,10.39,5.5-8.89,13.61-11.56,23.23-9.95,9.47,1.58,14.91,7.49,15.46,18.41.68,13.39.16,26.84.16,40.49H215.27v-3.68c0-11.23.09-22.45,0-33.67-.1-8.83-6.58-13.36-13.94-9.84-4.35,2.08-5.62,5.94-5.62,10.45q0,15.78,0,31.56v5.28Z"/><path class="cls-3" d="M242.88,269.36c9.71-1.5,10.68-1,13.58,6.87,1.37-1.12,2.65-2.23,4-3.26,12.81-9.82,28.75-5.2,33.92,10.06,3.48,10.29,3.53,20.72-.87,30.8-6.39,14.61-22.32,19.1-35.53,10.22a4,4,0,0,0-1-.23v22.79H242.88ZM257,299.43c0,3.62-.07,7.25,0,10.87a5.71,5.71,0,0,0,1,3.19c5.06,6.24,17.06,5.49,20.83-1.65,4.62-8.76,4.42-18,.6-27-2.06-4.86-7.39-6.54-13.21-5S257,285.24,257,290.31Z"/><path class="cls-3" d="M341.8,346.8c3.32-7.12,6.37-13.91,9.65-20.58a6.23,6.23,0,0,0,.05-5.87c-7.1-16-14.06-32.06-21.05-48.1-.4-.93-.71-1.9-1.21-3.22,4.41,0,8.52-.42,12.48.19,1.69.26,3.72,2.36,4.47,4.11,4.76,11,9.21,22.19,13.86,33.54,4-10.17,7.87-20.25,11.8-30.33,2.95-7.55,2.95-7.55,11-7.55h6.17c-.5,1.26-.88,2.27-1.3,3.26-9.93,23.28-19.92,46.54-29.74,69.88-1.5,3.57-3.58,5.13-7.45,4.73A87.3,87.3,0,0,0,341.8,346.8Z"/><path class="cls-4" d="M223.56,184.75c2.38,1,5.09,1.55,7.22,3a45.56,45.56,0,0,1,18.44,25.62c2.31,8.06-4.81,15-13.09,13.16a5.77,5.77,0,0,1-1.67-.49c-6.4-3.71-12.82-2.58-19.59-.88a36.72,36.72,0,0,1-14.09.6c-5.17-.77-7.29-4.67-5.89-9.67A48.41,48.41,0,0,1,217,187C218.77,185.85,221.08,185.55,223.56,184.75Z"/><path class="cls-3" d="M107.32,275.45c-.7,1.17-1.17,2-1.66,2.77-3,4.76-3.43,4.63-8.74,2.71a34.68,34.68,0,0,0-10.82-2c-3.11-.07-6,1.55-6.58,5.16s1.88,5.14,4.54,6.22c4.43,1.79,9,3.17,13.46,4.91,5.7,2.23,9.87,5.95,10.32,12.47.49,6.85-1.67,12.67-7.51,16.74-9.72,6.77-27.3,5.33-36.14-3.14.59-1,1.21-2.07,1.85-3.13,3-4.86,4.36-5.25,9.24-2.43,4.19,2.41,8.55,3.73,13.41,2.47,3-.8,5.33-2.38,5.77-5.77s-1.75-5.23-4.47-6.3c-4.12-1.63-8.41-2.8-12.53-4.42C67.12,297.6,63,288.58,67.25,279.22c3.12-6.89,9.14-9.83,16.17-10.75C92.23,267.32,100.35,269.09,107.32,275.45Z"/><path class="cls-5" d="M321.53,327.56H307.89V243.13h13.64Z"/><path class="cls-6" d="M132.92,327.66H119.07V269.18h13.85Z"/><path class="cls-7" d="M227.58,163.25c0-6.55,2-12.41,6.67-17.09,6.07-6.07,13.25-4.14,15.2,4.17,1.89,8-.22,15.28-5.38,21.55-2.53,3.08-5.85,5.31-10.1,4.06-4.42-1.3-5.71-5.14-6.36-9.2A21.39,21.39,0,0,1,227.58,163.25Z"/><path class="cls-7" d="M223.43,161c-1.17,3.47-1.87,7.2-3.63,10.35-2.63,4.71-7.74,5.23-11.93,1.81-7.13-5.81-9.42-20.29-4.42-28,3-4.66,8-5.38,12.27-1.77S222.67,153.76,223.43,161Z"/><path class="cls-7" d="M204,185.8a26.71,26.71,0,0,1-1.06,5.06c-1.84,4.8-6.38,6.58-11.15,4.61-7.9-3.27-13-15.55-9.69-23.46,2.31-5.58,7.69-7.31,12.94-3.89C201,172.06,203.6,178,204,185.8Z"/><path class="cls-7" d="M266.34,183.3a20.29,20.29,0,0,1-6.48,15c-3.13,3-6.84,4.79-11.12,3s-5.38-6-5.33-10.23a20.22,20.22,0,0,1,6-14.49c3.2-3.18,6.86-5.61,11.54-3.65C265.46,174.73,266.38,178.85,266.34,183.3Z"/><path class="cls-8" d="M227.43,397.33H196.77c-.11,6.69.75,12.89,6.51,16.88,6.13,4.26,12.61,3.25,18.86-.14,1.68-.9,3.31-2.74,4.73.25-8.54,9.18-26.15,7-31.61-4a26.59,26.59,0,0,1-.62-23.07c3.58-8.34,13.23-12.4,22-9.56C224.35,380.12,229.26,388.84,227.43,397.33ZM224,394.39c.08-8.74-4.88-14.38-12.49-14.48-8.17-.1-14,5.79-14.28,14.48Z"/><path class="cls-9" d="M264.43,414.72c.94-2.63,2.41-2.12,4.22-.82a14.63,14.63,0,0,0,13,2.4,8.53,8.53,0,0,0,6.61-8.08c.17-4-2.45-5.89-5.62-7.16-2.92-1.16-6-1.95-9-3-6-2.15-8.78-5.47-8.56-10.13.24-5.1,3.87-9.33,9.68-10.55,5-1.05,10.05-.75,14.46,2.34.71.5.9,1.74,1.33,2.64-1,0-2.23.47-3,0-3.82-2.22-7.79-3.14-12.1-1.93-3.42,1-5.88,3-6.28,6.71s2.09,5.51,5.08,6.68,6.18,2.12,9.24,3.24c6.62,2.41,9,5.45,8.63,11.09s-4,9.73-10,11.18C276.81,420.66,268.63,419.89,264.43,414.72Z"/><path class="cls-9" d="M168.55,413.45c4.76-11.29,9.34-22,13.74-32.72,1.07-2.63,2.46-3.77,5.47-2.67l-14.42,34.16a46.36,46.36,0,0,1-2.43,5.42,3.23,3.23,0,0,1-2.33,1.37,3.05,3.05,0,0,1-2.46-1.18c-5.67-13.16-11.23-26.37-16.88-39.74,2.87-1,4.4-.36,5.53,2.41C159.14,391.31,163.74,402,168.55,413.45Z"/><path class="cls-10" d="M259.07,416.5c-3.33,3.09-7.28,3.76-11.47,3.18s-6.6-3.82-6.66-9.3c-.09-8.05,0-16.11,0-24.17v-3.67c-2-2-6.16,1.5-7.22-3.3H241c.33-4.6.69-9,.94-13.32.11-2,.7-3.15,3.15-2.34v15.5c3.87,0,7.55-.1,11.23.08.82,0,1.59,1.07,2.38,1.64l-.56,1H245.14V398c0,3.85,0,7.7,0,11.56,0,2.68.41,5.14,3.05,6.58s5,.69,7.2-.9C257.13,414,258.26,413.92,259.07,416.5Z"/><path class="cls-11" d="M126,261.06a9,9,0,0,1-9.18-9,9.13,9.13,0,0,1,18.26-.09A9.07,9.07,0,0,1,126,261.06Z"/><path class="cls-7" d="M314.53,87.06a10.9,10.9,0,0,1,11.18-11.29,11.32,11.32,0,1,1,0,22.64A11,11,0,0,1,314.53,87.06Z"/></g></g></svg>