<svg xmlns="http://www.w3.org/2000/svg" viewBox="0 0 321.95 320.82"><defs><style>.cls-1{fill:#28a3dd;}.cls-2{fill:#28a3dc;}.cls-3{fill:#2da5dd;}.cls-4{fill:#30a7de;}.cls-5{fill:#37aadf;}.cls-6{fill:#1d9fdb;}.cls-7{fill:#50b4e3;}.cls-8{fill:#4bb2e2;}</style></defs><title>webinarvetlogo_2</title><g id="Layer_2" data-name="Layer 2"><g id="Layer_1-2" data-name="Layer 1"><path class="cls-1" d="M322,160.32c0,88.2-72.35,160.78-160.94,160.5C67.7,320.52,0,244.28,0,160.44S67.59.15,160.87,0C250.3-.14,321.39,71.8,322,160.32ZM299.2,99.55l.69.55,0-1.17L297,93.54c-2.3,1.44-4,3.11-5.9,3.55a117.35,117.35,0,0,1-11.74,1.52l-1.43-.84c3.28-4.36,6.46-8.8,9.93-13,.55-.68,2.35-.34,3.57-.46l.44.62-.54-.56-5.06-9.32L266.7,101.58l12.64-1.42Zm-113-74.28c.51-1.73,1-3.46,1.73-5.93L200.68,46l1.08-.2q1.45-6.51,2.92-13c2.91-4.31.43-11.27,8-13.85L204.26,17c.31,2.58.89,4.89.76,7.17a46.92,46.92,0,0,1-1.5,7.21L202.4,33.9c-2.21-4.83-4.57-8.83-5.92-13.16-2-6.32-6.39-8.13-12.36-8.27,2.21,3,2.21,3,.9,11.42-3.13,4.9-.65,12.39-7.87,16l7.58,1.83c-.22-2.7-.77-5-.52-7.23A87.25,87.25,0,0,1,186.16,25.27Zm37.22,11.06a30.46,30.46,0,0,0-4.5,2.14c-4.16,2.82-8.22,5.8-12.41,8.78,1.42.64,3.47,1.57,5.52,2.48l1.1.36-.64-.8c-1.06-3.69,1.17-5.65,4.15-5.55,2.23.08,4.56,1.83,6.56,3.24,2.6,1.83,1.51,5.94-1.82,7.42a1.55,1.55,0,0,0-.17-.44c0-.06-.22,0-.33,0l.58.37L231,59.79l1.07.3-.52-.85V28l-8.16,8.34ZM44.83,79.83l-1.17-.17.52.89c.41,2,.82,4,1.51,7.25-2.75-1.56-3.92-2.15-5-2.86-1.79-1.18-3.52-2.45-5.72-4,1.78-2.13,3-4.52,5-5.7s4.48-1,7.3-1.47l-6.61-4.25L29.08,86.46a157.55,157.55,0,0,1,24,15.81C56.53,97.1,60.65,91,64.94,84.63l-5.45-4.4-1-.54.36,1.15c2.25,4.34,1.41,8.33-1.66,11.85-.64.73-2.46,1.32-3.18.93-2.77-1.47-5.31-3.37-7.94-5.12l.53-1.8,7.83-.39.28.34-.36-.28C51.17,84.19,48,82,44.83,79.83Zm75.24-42.17,1,.21-.57-.62c-1.31-4.08-2.63-8.17-4-12.44-1.11,3.17-2,5.59-2.82,8l-1.75-.32c-1.13-3.22-2.26-6.44-3.45-9.8,5-2.64,9.55-4.09,14,.83-.84-2.28-1.69-4.56-2.68-7.23-7.52,2.7-14.71,5.26-21.89,7.83,5,1.44,13,21.56,9.82,26.81l22.54-8c-.72-3.08-1.32-5.62-1.91-8.16-.8,5.68-4,8.76-9,10A3.93,3.93,0,0,1,116,43.32a69.16,69.16,0,0,1-3-8.24l1.28-1.33ZM242.39,69.33l.73.25-.8-.16c-.43-5.42,3.62-7.6,6.9-10.8.54,1,.84,1.33.82,1.6-.28,3.14-.56,6.29-.95,9.42-.78,6.25.06,7.73,5.67,10.1.47-4.94,1-10,1.47-15.3,4.61,1.49,8.21,1,10.38-3.08s.47-7.44-2.5-10.27c-3.57-3.41-7.32-6.65-10-9.07L234.94,63.47ZM20.47,107.45l11.81,2.43-3.82,9.53c-4-2.33-9.69-1-10.56-7.71-.9,2.28-1.65,4.1-2.32,6s-1.22,3.61-1.88,5.57C20,122.45,38.27,130,40,134.37l3.36-9.91-12.74-4.14,3.57-9.51,12.37,5.5c.9-2.45,2-5.36,2.69-7.37L22.34,99.29c-.86,2.64-1.66,5.12-2.46,7.61l-1,1.87.61.34C19.84,108.56,20.16,108,20.47,107.45Zm45-62-9.18,5.33L84.08,68c-1.41-6.92-2.6-12.73-4-19.78L97,59.27c-2.91-11.21-5.46-21-8.1-31.17l-3.7,2.21c5.47,4.44,4.57,11,5.91,16.79-3.8-4.61-12-4-13-11.65L68,42.79c8.46.89,11.91,5.56,10.62,13.85-3.9-2.47-7.78-4.72-11.38-7.35-1-.76-1.31-2.6-1.93-3.94L65.5,45Zm94.8,232.16c64.12,0,116.16-51.54,116.22-115.18A115.87,115.87,0,0,0,160.68,46.17C96.46,46,44.34,97.67,44.21,161.69S96,277.56,160.22,277.58ZM134.28,42.25c7.07-1.27,13.09-1.77,18.65-3.63,2.31-.78,4.86-4.4,5-6.88.13-2-3.14-4.24-5-6.32-.31-.35-.92-.44-.08-.07.81-3.53,2.49-6.57,1.86-9-1.05-4.1-5.1-4.86-9-4.51-5.11.47-10.21,1.16-15.46,1.78C134.55,16.2,137.77,36.14,134.28,42.25ZM276.9,118.17c1.47,4.91,3,10.18,4.61,15.44,1.45,4.81,2.51,5.16,7.7,2.33-.89-.44-1.86-.61-2.24-1.18-2-2.9-3.76-5.91-5.62-8.88,2.19-1.2,4.34-2.49,6.59-3.56a20.86,20.86,0,0,1,3.73-1l1.1.83c-1.11,2-2.21,4.1-3.58,6.62l12.28-3.46-7.63-3.22c.12-.54.24-1.08.37-1.62l10.2-3.12c1.93,5,3.5,9.28-1.07,13.46l6.72-1.85c-2.09-6.9-4-13.21-5.77-19Zm30.94,47.38,6.24-.44c-.65-8.91-1.24-17.11-1.85-25.66l-7.26.64c3.93,1.78,6.52,3.82,5.4,9.17-8.62-1.12-17.29,3.34-26.18-.61.26,3.93.53,8.1.88,13.44,2.43-4.75,14.48-6.75,27.43-5.28ZM11.46,133.3c-1.07,8.11-2.3,15.61-3,23.17-.29,3.47,2.38,3,4.64,2.56l-3.79-9.42L38,153c.14-2.07.35-5,.52-7.44L12.72,143c-1.2-5.32,2.06-7,5.71-8.74ZM164.18,11.42c3.43,4.43,1.4,25.35-2.76,27.82l13.24,1c-3.89-4.35-2.67-24.9,1.68-28.83ZM299.9,169.18a7.14,7.14,0,1,0,7.24,7.36A7.35,7.35,0,0,0,299.9,169.18ZM32.6,176.1a6.91,6.91,0,0,0-7.48-6.9,7.13,7.13,0,0,0,.42,14.26A7,7,0,0,0,32.6,176.1Z"/><path class="cls-2" d="M160.24,49.83A112.09,112.09,0,0,1,272.8,162.21c-.08,61.76-50.66,112.06-112.63,112a112.19,112.19,0,1,1,.07-224.38ZM163.43,197c.67-.49,1.89-.94,1.93-1.48.18-2.36,0-4.75,0-7.13,1.36,1.83,2.73,3.66,4.35,5.82,3.16-4.16,3.57-8.76,2.39-13.69l1.27-2c6.2-2.74,13-4.63,18.48-8.4,13.81-9.43,14.07-30.28.55-40.2-4.68-3.45-10.57-5.53-16.19-7.37-11.21-3.68-22.9-6.05-33.85-10.35-6.42-2.53-12.05-7.41-17.49-11.89-2.22-1.83-3.52-5.28-4.22-8.23-.37-1.53,1-4.39,2.46-5.18a6.16,6.16,0,0,1,5.66.79,14.72,14.72,0,0,0,11.93,4c4.37-.42,8.71-1.26,13.42-2C146.56,78,141,75.36,128.19,76.65c-3.8.38-7.64.36-11.46.63C109,77.83,104.8,82.34,105.25,90c.62,10.41,5.77,18.57,13.34,25.41,14.76,13.33,32.5,20.17,51.69,23.9,5.49,1.07,12.06,6.71,12.34,10.78.44,6.68-2.58,11.64-8.07,15.34-2.6,1.74-4.91,3.91-7.34,5.88l-1.6-.57c0-8.42.08-16.85.1-25.27,0-6.4-.33-6.67-7-5.49-.1,1.74-.2,3.52-.29,5.31l-.12,13q.5,5.1,1,10.21l-.27,1.72c-5.22-2.79-10.76-5.13-15.56-8.51-4.24-3-6.5-7.8-5.07-13.14,1.27-4.76,4.38-8,9.82-8.41,2.06-.16,4-1.09,6.25-1.73-7.21-2.89-14.16-5.41-20.86-8.49-2.61-1.2-4.07-.88-6,1-12.47,12.14-9.54,34,6,42.18,3.76,2,8.19,2.65,12.17,4.26,5.27,2.13,10.39,4.6,15.58,6.92l-1.59.28-2.25-.31-4.85-2.69c-1.11,2.11-2,3.81-3.1,5.93H119.52l-.76,1.6c8.4-.07,10.43,5.89,12.84,11.7,8.45,20.44,17,40.83,25.59,61.23.64,1.53,1.5,3,2.88,5.66,1.28-2.79,2-4.21,2.58-5.68q12-30.4,24-60.82c2.11-5.34,4.46-10.52,10.74-12.22,0-.59,0-1.19,0-1.78H174.68c1,1.26,1.23,1.77,1.59,1.92,7.54,3.09,8,3.74,5.18,11.39-3.67,10-7.64,19.84-11.51,29.74-2.2,5.64-4.47,11.25-6.91,17.39-.7-1.23-1.08-1.78-1.33-2.38-6.19-14.87-12.48-29.71-18.52-44.64-3.38-8.38-2.25-10.08,6.75-11.75,3.23,11.82,8,15.12,19.55,12.94l-6-3.71Zm-71-92.63,8.25,2.09-.12-1q-7.65-7-15.33-14c0,37.05.06,74.19-.09,111.32a8.31,8.31,0,0,0,4.07,7.72c14.71,10.33,29.28,20.87,43.91,31.33l8.75,6.27,1.27-1.17c-1.2-1.61-2.11-3.64-3.66-4.78q-23.16-17-46.52-33.7a7.12,7.12,0,0,1-3.39-6.58c.17-12.65,0-25.31.08-38q.08-29.71.22-59.44Zm143.87,33V91.07l-15.94,14.5.09,1,10.82-3c0,.3.12,1.06.12,1.83,0,32.31.06,64.63-.14,97a8.63,8.63,0,0,1-3.25,5.89c-15.38,11.4-31,22.52-46.42,33.85-1.61,1.19-2.55,3.29-3.8,5l1.47,1.28,56.92-41.26,2.89,1.41c-1.47,1.8-2.65,4-4.47,5.34q-31.32,22.75-62.83,45.27c-2.24,1.6-4.32,3.09-2.45,6.58a21.83,21.83,0,0,0,2.21-1.24c23.62-16.78,47.19-33.63,70.89-50.3,2.64-1.86,2.95-4,2.95-6.74q-.09-53,0-105.95V96.58c-4.7.12-6.07,2.13-6,6.33.19,11.48-.08,23-.16,34.46Zm-68.27-19.92c7.58,2.26,13.71,3.82,19.65,6,3.89,1.39,7,1,10.13-1.63,2.42-2,5.11-3.73,7.53-5.76a39,39,0,0,0,13.72-22.62c2-10-2.76-15.87-12.84-16.17-4-.12-8-.28-12-.75-10.73-1.29-18.11,3.4-23.53,12.81,9.21,2.37,17.86,5.29,26-2.55,2.09-2,6-1,6.87,2.28.58,2.22-.21,5.32-1.44,7.42-5,8.58-13.07,13.53-22.17,16.91C176.5,114.63,172.93,115.77,168.05,117.44ZM76,96.55c-.12,1.18-.33,2.28-.33,3.38,0,36.16-.06,72.31.12,108.47a7.94,7.94,0,0,0,3,5.57c23.11,16.65,46.35,33.11,69.57,49.6,1.1.78,2.34,1.36,3.52,2l1.43-1.47c-1.46-1.81-2.62-4-4.43-5.34-20.48-14.88-41-29.75-61.7-44.3-4.19-2.95-5.61-6.09-5.59-11.09.16-33.49,0-67,.06-100.47C81.68,98.9,80.65,96.64,76,96.55Zm90.32,20.15c0-10.34.06-20.61,0-30.88,0-2.53.51-4.13,2.94-5.56a11.67,11.67,0,0,0,5.39-13.72A12.4,12.4,0,0,0,163,57.38a12.64,12.64,0,0,0-12,8.15c-2,5.34-.14,10.61,4.53,14.64a8.71,8.71,0,0,1,2.76,5.53c.35,7.79.22,15.61.26,23.41C158.56,115.66,158.55,115.66,166.36,116.7Zm-6.51,86.55-1.72,1.18q2.91,6.7,5.84,13.41l1.05-.49v-13.8Z"/><path class="cls-3" d="M258.07,48.08c5.05,4.52,5.39,6.87,2,10.32-3.12,3.16-5.44,2.81-9.7-1.63Z"/><path class="cls-3" d="M142.15,27.13c6.19-.51,9.41,2,8.34,6.51-.44,1.9-3,3.3-4.59,4.93-1-1.41-2.32-2.7-2.79-4.26C142.45,32.13,142.47,29.75,142.15,27.13Z"/><path class="cls-4" d="M141.84,24.76c-.45-3.66-.82-6.74-1.22-10.08,3.93-1.1,6.86-.37,7.52,3.86S146.42,24.53,141.84,24.76Z"/><path class="cls-5" d="M223.34,36.36c4.17,2.26.89,5.53,1.64,9.29l-6.88-3.51,5.28-5.81Z"/><path class="cls-6" d="M236.19,207.09q.08-34.86.13-69.73h2.86q0,35.57-.1,71.13Z"/><path class="cls-5" d="M159.35,168.56l6.25,2.22,1.61.57q3.06,3.57,6.14,7.13l-1.27,2q-6.51-5.08-13-10.19Z"/><path class="cls-5" d="M158.47,145.33l-.12,13Z"/><path class="cls-7" d="M159.79,184.63l1.59,10.75c-5.77-2.13-3.56-7-3.84-11.06Z"/><path class="cls-8" d="M89.89,104.45l.25-1.7,2.31,1.57Z"/><path class="cls-7" d="M162.35,196.35l1.08.6v1.2Z"/><path class="cls-7" d="M161.36,195.36l1,1Z"/><path class="cls-2" d="M165.41,188.38l-3-3Z"/><path class="cls-2" d="M162.41,185.37l-1-1.05Z"/></g></g></svg>